<?xml version="1.0" encoding="UTF-8"?>
<svg version="1.1" xmlns="http://www.w3.org/2000/svg" width="723" height="176">
<path d="M0 0 C238.59 0 477.18 0 723 0 C723 58.08 723 116.16 723 176 C484.41 176 245.82 176 0 176 C0 117.92 0 59.84 0 0 Z " fill="#FEFEFE" transform="translate(0,0)"/>
<path d="M0 0 C1.32 1.98 2.64 3.96 4 6 C-6.23 16.23 -16.46 26.46 -27 37 C-28.98 35.35 -30.96 33.7 -33 32 C-27.71510279 25.54380465 -21.87015907 19.6840136 -15.97607422 13.79077148 C-14.23505742 12.0475384 -12.50223063 10.2964178 -10.76953125 8.54492188 C-9.66455103 7.43701255 -8.55909952 6.32957302 -7.453125 5.22265625 C-6.93542542 4.69777115 -6.41772583 4.17288605 -5.88433838 3.63209534 C-2.22886152 0 -2.22886152 0 0 0 Z " fill="#0C0C0C" transform="translate(159,57)"/>
<path d="M0 0 C0.66 0 1.32 0 2 0 C3.33984375 1.36328125 3.33984375 1.36328125 4.9375 3.3125 C11.4499337 10.96460959 18.63079035 17.91928437 26.2734375 24.4296875 C28.81680294 26.74288412 30.88701634 29.29273968 33 32 C31.02 33.65 29.04 35.3 27 37 C16.77 26.77 6.54 16.54 -4 6 C-2 2 -2 2 0 0 Z " fill="#090909" transform="translate(616,57)"/>
<path d="M0 0 C2.64 0 5.28 0 8 0 C8 12.21 8 24.42 8 37 C5.36 37 2.72 37 0 37 C0 24.79 0 12.58 0 0 Z " fill="#101010" transform="translate(407,57)"/>
<path d="M0 0 C2.64 0 5.28 0 8 0 C8 12.21 8 24.42 8 37 C5.36 37 2.72 37 0 37 C0 24.79 0 12.58 0 0 Z " fill="#101010" transform="translate(251,57)"/>
<path d="M0 0 C2.64 0 5.28 0 8 0 C8 12.21 8 24.42 8 37 C5.36 37 2.72 37 0 37 C0 24.79 0 12.58 0 0 Z " fill="#101010" transform="translate(68,57)"/>
<path d="M0 0 C12.54 0 25.08 0 38 0 C38 2.31 38 4.62 38 7 C25.46 7 12.92 7 0 7 C0 4.69 0 2.38 0 0 Z " fill="#020202" transform="translate(308,57)"/>
<path d="M0 0 C2.37105044 1.2625431 3.45104175 2.77189304 4.89404297 5.00854492 C1.66147321 8.29044951 -1.57753309 11.56580949 -4.82275391 14.83520508 C-5.92645001 15.94897615 -7.02834676 17.06453324 -8.12841797 18.18188477 C-9.70740777 19.7850573 -11.29269817 21.38175403 -12.87939453 22.97729492 C-13.37216888 23.48039185 -13.86494324 23.98348877 -14.37265015 24.50183105 C-15.57971303 25.70929005 -16.83874299 26.86437421 -18.10595703 28.00854492 C-20.10595703 28.00854492 -20.10595703 28.00854492 -22.23095703 26.00854492 C-22.84970703 25.34854492 -23.46845703 24.68854492 -24.10595703 24.00854492 C-21.6265882 18.18010294 -16.62281717 14.11562367 -12.23095703 9.69604492 C-10.86390625 8.2796875 -10.86390625 8.2796875 -9.46923828 6.8347168 C-8.14859375 5.5034375 -8.14859375 5.5034375 -6.80126953 4.14526367 C-5.99705566 3.32759521 -5.1928418 2.50992676 -4.36425781 1.66748047 C-2.10595703 0.00854492 -2.10595703 0.00854492 0 0 Z " fill="#0B0B0B" transform="translate(691.10595703125,57.991455078125)"/>
<path d="M0 0 C2.31 0 4.62 0 7 0 C7 12.21 7 24.42 7 37 C4.69 37 2.38 37 0 37 C0 24.79 0 12.58 0 0 Z " fill="#020202" transform="translate(514,57)"/>
<path d="M0 0 C2.31 0 4.62 0 7 0 C7 12.21 7 24.42 7 37 C4.69 37 2.38 37 0 37 C0 24.79 0 12.58 0 0 Z " fill="#000000" transform="translate(468,57)"/>
<path d="M0 0 C2.31 0 4.62 0 7 0 C7 12.21 7 24.42 7 37 C4.69 37 2.38 37 0 37 C0 24.79 0 12.58 0 0 Z " fill="#020202" transform="translate(390,57)"/>
<path d="M0 0 C2.31 0 4.62 0 7 0 C7 12.21 7 24.42 7 37 C4.69 37 2.38 37 0 37 C0 24.79 0 12.58 0 0 Z " fill="#020202" transform="translate(352,57)"/>
<path d="M0 0 C2.31 0 4.62 0 7 0 C7 12.21 7 24.42 7 37 C4.69 37 2.38 37 0 37 C0 24.79 0 12.58 0 0 Z " fill="#020202" transform="translate(196,57)"/>
<path d="M0 0 C12.21 0 24.42 0 37 0 C37 2.31 37 4.62 37 7 C24.79 7 12.58 7 0 7 C0 4.69 0 2.38 0 0 Z " fill="#000000" transform="translate(25,57)"/>
<path d="M0 0 C3.25207092 1.41738489 5.31361067 3.12526412 7.75 5.6875 C10.46245589 8.48077394 13.21912461 11.10552826 16.1875 13.625 C19.5405052 16.50183878 22.28382588 19.51990191 25 23 C23.02 24.65 21.04 26.3 19 28 C11.41 20.41 3.82 12.82 -4 5 C-2.68 3.35 -1.36 1.7 0 0 Z " fill="#090909" transform="translate(165,66)"/>
<path d="M0 0 C3.16115776 1.36983503 3.9927092 1.9890638 6 5 C-1.59 12.59 -9.18 20.18 -17 28 C-18.98 26.35 -20.96 24.7 -23 23 C-18.86993456 17.89176116 -14.40468679 13.56580166 -9.48046875 9.22265625 C-6.18945596 6.27370148 -3.07753727 3.16925195 0 0 Z " fill="#060606" transform="translate(669,58)"/>
<path d="M0 0 C2.64 0 5.28 0 8 0 C8 8.58 8 17.16 8 26 C5.36 26 2.72 26 0 26 C0 17.42 0 8.84 0 0 Z " fill="#101010" transform="translate(323,68)"/>
<path d="M0 0 C8.91 0 17.82 0 27 0 C27 2.31 27 4.62 27 7 C18.09 7 9.18 7 0 7 C0 4.69 0 2.38 0 0 Z " fill="#050505" transform="translate(525,87)"/>
<path d="M0 0 C8.58 0 17.16 0 26 0 C26 2.31 26 4.62 26 7 C17.42 7 8.84 7 0 7 C0 4.69 0 2.38 0 0 Z " fill="#000000" transform="translate(419,87)"/>
<path d="M0 0 C8.58 0 17.16 0 26 0 C26 2.31 26 4.62 26 7 C17.42 7 8.84 7 0 7 C0 4.69 0 2.38 0 0 Z " fill="#000000" transform="translate(263,87)"/>
<path d="M0 0 C2.31 0 4.62 0 7 0 C7 8.58 7 17.16 7 26 C4.69 26 2.38 26 0 26 C0 17.42 0 8.84 0 0 Z " fill="#000000" transform="translate(40,68)"/>
<path d="M0 0 C8.58 0 17.16 0 26 0 C26 2.31 26 4.62 26 7 C17.42 7 8.84 7 0 7 C0 4.69 0 2.38 0 0 Z " fill="#010101" transform="translate(479,57)"/>
<path d="M0 0 C8.58 0 17.16 0 26 0 C26 2.31 26 4.62 26 7 C17.42 7 8.84 7 0 7 C0 4.69 0 2.38 0 0 Z " fill="#000000" transform="translate(419,57)"/>
<path d="M0 0 C8.58 0 17.16 0 26 0 C26 2.31 26 4.62 26 7 C17.42 7 8.84 7 0 7 C0 4.69 0 2.38 0 0 Z " fill="#000000" transform="translate(263,57)"/>
<path d="M0 0 C7.92 0 15.84 0 24 0 C24 2.31 24 4.62 24 7 C16.08 7 8.16 7 0 7 C0 4.69 0 2.38 0 0 Z " fill="#020202" transform="translate(207,87)"/>
<path d="M0 0 C7.92 0 15.84 0 24 0 C24 2.31 24 4.62 24 7 C16.08 7 8.16 7 0 7 C0 4.69 0 2.38 0 0 Z " fill="#020202" transform="translate(207,57)"/>
<path d="M0 0 C6.27762202 3.63441275 10.99111424 8.81293254 16 14 C14.35 15.98 12.7 17.96 11 20 C5.70987876 15.59156563 0.81191572 10.92440206 -4 6 C-2.84826645 3.53199953 -1.95216435 1.95216435 0 0 Z " fill="#0D0D0D" transform="translate(108,74)"/>
<path d="M0 0 C7.59 0 15.18 0 23 0 C23 2.31 23 4.62 23 7 C15.41 7 7.82 7 0 7 C0 4.69 0 2.38 0 0 Z " fill="#030303" transform="translate(571,87)"/>
<path d="M0 0 C7.59 0 15.18 0 23 0 C23 2.31 23 4.62 23 7 C15.41 7 7.82 7 0 7 C0 4.69 0 2.38 0 0 Z " fill="#030303" transform="translate(363,72)"/>
<path d="M0 0 C2.31 0 4.62 0 7 0 C7 7.59 7 15.18 7 23 C4.69 23 2.38 23 0 23 C0 15.41 0 7.82 0 0 Z " fill="#020202" transform="translate(598,64)"/>
<path d="M0 0 C2.31 0 4.62 0 7 0 C7 7.59 7 15.18 7 23 C4.69 23 2.38 23 0 23 C0 15.41 0 7.82 0 0 Z " fill="#020202" transform="translate(560,64)"/>
<path d="M0 0 C2.31 0 4.62 0 7 0 C7 7.59 7 15.18 7 23 C4.69 23 2.38 23 0 23 C0 15.41 0 7.82 0 0 Z " fill="#020202" transform="translate(234,64)"/>
<path d="M0 0 C7.59 0 15.18 0 23 0 C23 2.31 23 4.62 23 7 C15.41 7 7.82 7 0 7 C0 4.69 0 2.38 0 0 Z " fill="#030303" transform="translate(571,57)"/>
<path d="M0 0 C6.93 0 13.86 0 21 0 C21 2.31 21 4.62 21 7 C14.07 7 7.14 7 0 7 C0 4.69 0 2.38 0 0 Z " fill="#010101" transform="translate(80,72)"/>
<path d="M0 0 C4.44926052 0.41314562 6.84100104 3.50461527 9.75 6.5625 C10.25660156 7.08263672 10.76320313 7.60277344 11.28515625 8.13867188 C12.53034405 9.41910084 13.76611502 10.70867554 15 12 C13.68 13.65 12.36 15.3 11 17 C6.55073948 16.58685438 4.15899896 13.49538473 1.25 10.4375 C0.74339844 9.91736328 0.23679687 9.39722656 -0.28515625 8.86132812 C-1.53034405 7.58089916 -2.76611502 6.29132446 -4 5 C-2.68 3.35 -1.36 1.7 0 0 Z " fill="#0D0D0D" transform="translate(636,58)"/>
<path d="M0 0 C6.93 0 13.86 0 21 0 C21 2.31 21 4.62 21 7 C14.07 7 7.14 7 0 7 C0 4.69 0 2.38 0 0 Z " fill="#010101" transform="translate(80,57)"/>
<path d="M0 0 C6.27 0 12.54 0 19 0 C19 2.31 19 4.62 19 7 C12.73 7 6.46 7 0 7 C0 4.69 0 2.38 0 0 Z " fill="#030303" transform="translate(148,80)"/>
<path d="M0 0 C2.31 0 4.62 0 7 0 C7 4.95 7 9.9 7 15 C4.69 15 2.38 15 0 15 C0 10.05 0 5.1 0 0 Z " fill="#000000" transform="translate(105,57)"/>
<path d="M0 0 C4.29 0 8.58 0 13 0 C13 2.31 13 4.62 13 7 C8.71 7 4.42 7 0 7 C0 4.69 0 2.38 0 0 Z " fill="#020202" transform="translate(479,72)"/>
<path d="M0 0 C4.29 0 8.58 0 13 0 C13 2.31 13 4.62 13 7 C8.71 7 4.42 7 0 7 C0 4.69 0 2.38 0 0 Z " fill="#020202" transform="translate(419,72)"/>
<path d="M0 0 C4.29 0 8.58 0 13 0 C13 2.31 13 4.62 13 7 C8.71 7 4.42 7 0 7 C0 4.69 0 2.38 0 0 Z " fill="#020202" transform="translate(263,72)"/>
<path d="M0 0 C1.5078125 1.53125 1.5078125 1.53125 3.125 3.5 C3.66382813 4.1496875 4.20265625 4.799375 4.7578125 5.46875 C5.16773438 5.9740625 5.57765625 6.479375 6 7 C4.21875 10.8671875 4.21875 10.8671875 2.25 12.0625 C-1.48909675 11.9586362 -3.32560678 9.49204823 -6 7 C-5.37162381 3.35541809 -4.14650034 0 0 0 Z " fill="#111111" transform="translate(663,81)"/>
</svg>
